<svg xmlns="http://www.w3.org/2000/svg" viewBox="0 0 34.82 33.43"><defs><style>.cls-1{fill:#7a8593;}</style></defs><g id="Toolbar-items"><path class="cls-1" d="M28.7,21.31a4.09,4.09,0,0,0-3-1.38,2,2,0,0,1-1.76-1l-3-5.29A2.05,2.05,0,0,1,21,11.49a4.12,4.12,0,0,0,.58-2.83,4.19,4.19,0,0,0-8.34.64,4.05,4.05,0,0,0,.62,2.18,2.07,2.07,0,0,1,.07,2.12l-3,5.28a2,2,0,0,1-1.76,1.05,4.12,4.12,0,0,0-3,1.39,3.94,3.94,0,0,0-1.28,2.9,4.2,4.2,0,0,0,5.21,4,4.15,4.15,0,0,0,3-3,4.21,4.21,0,0,0-.49-3.26,2,2,0,0,1-.07-2.1l3-5.32a2.07,2.07,0,0,1,1.87-1h0a2.06,2.06,0,0,1,1.87,1l3,5.32a2,2,0,0,1-.07,2.1A4.19,4.19,0,1,0,30,24.21,3.93,3.93,0,0,0,28.7,21.31Z"/></g></svg>