<svg xmlns="http://www.w3.org/2000/svg" viewBox="0 0 34.82 33.43"><defs><style>.cls-1{fill:#7a8593;}</style></defs><g id="Toolbar-items"><path class="cls-1" d="M28.58,13.86a1,1,0,0,0-1.41.05l-1,1V9.81a1,1,0,0,0-2,0v5.13l-.95-1a1,1,0,0,0-1.47,1.36l2.68,2.9h0a1.14,1.14,0,0,0,.25.18l.07,0a.9.9,0,0,0,.4.09.86.86,0,0,0,.39-.09l.07,0a1.51,1.51,0,0,0,.26-.18h0l2.69-2.9A1,1,0,0,0,28.58,13.86Z"/><path class="cls-1" d="M17.55,10.14a1.22,1.22,0,0,0-1.22,1.22v5H10.57v-5a1.22,1.22,0,0,0-2.44,0V22.84a1.22,1.22,0,0,0,2.44,0V18.21h5.76v4.63a1.23,1.23,0,0,0,2.45,0V11.36A1.22,1.22,0,0,0,17.55,10.14Z"/></g></svg>