<svg xmlns="http://www.w3.org/2000/svg" viewBox="0 0 83.67 83.67"><defs><style>.cls-1{fill:#7a8593;}</style></defs><g id="Toolbar-items"><path class="cls-1" d="M28.24,53.25,24.72,63.9a2.46,2.46,0,0,1-2.34,1.7h0A2.48,2.48,0,0,1,20,62.33L31.69,28A2.46,2.46,0,0,1,34,26.34h2.58A2.47,2.47,0,0,1,39,28L50.66,62.33a2.47,2.47,0,0,1-2.34,3.27h-.19a2.46,2.46,0,0,1-2.34-1.68L42.16,53.25Zm12.88-4L37.27,38c-.87-2.56-1.45-4.89-2-7.17h-.11c-.59,2.33-1.23,4.72-2,7.11L29.29,49.29Z"/><polygon class="cls-1" points="63.77 18.72 63.77 17.92 54.5 17.92 54.5 18.72 58.54 18.72 58.54 64.8 54.5 64.8 54.5 65.6 58.54 65.6 59.73 65.6 63.77 65.6 63.77 64.8 59.73 64.8 59.73 18.72 63.77 18.72"/></g></svg>