<svg xmlns="http://www.w3.org/2000/svg" viewBox="0 0 83.67 83.67"><defs><style>.cls-1{fill:#00919b;}</style></defs><g id="Toolbar-items"><path class="cls-1" d="M61.83,25.38a5.74,5.74,0,0,0-4-1.89l-6.46-.32a5.26,5.26,0,0,0-5.28-3L25.55,22.4a5.26,5.26,0,0,0-4.67,5.79l3.28,31A5.27,5.27,0,0,0,30,63.82l1.64-.17a5.79,5.79,0,0,0,3.52,1.43l20.64,1H56a5.75,5.75,0,0,0,5.74-5.48l1.54-31.09A5.76,5.76,0,0,0,61.83,25.38Zm-1,35.19a4.8,4.8,0,0,1-1.56,3.3,4.74,4.74,0,0,1-3.44,1.22l-20.64-1a4.66,4.66,0,0,1-2-.6L50.5,61.64a5.27,5.27,0,0,0,4.68-5.79L51.89,24.9a4.06,4.06,0,0,0-.15-.71l6.06.3a4.77,4.77,0,0,1,4.52,5Z"/></g></svg>