<svg xmlns="http://www.w3.org/2000/svg" viewBox="0 0 34.82 33.43"><defs><style>.cls-1{fill:#7a8593;}</style></defs><g id="Toolbar-items"><path class="cls-1" d="M23.13,22.91A4.59,4.59,0,0,1,20,24.25l-2.59.06a4.41,4.41,0,1,1,3.16-7.48l5-5L20.76,7H7.44V23.88a3.1,3.1,0,0,0,3.1,3.1H24.28a3.1,3.1,0,0,0,3.1-3.1V18.66ZM9.23,11.58V8.76h10v2.82Z"/><polygon class="cls-1" points="30.82 13.32 21.67 22.47 20.88 22.62 18.69 23.02 19.25 20.05 21.36 17.94 26.51 12.79 27.94 11.36 28.4 10.9 30.82 13.32"/></g></svg>