<svg xmlns="http://www.w3.org/2000/svg" viewBox="0 0 34.82 33.43"><defs><style>.cls-1{fill:#7a8593;}.cls-2{fill:#fff;}</style></defs><g id="Toolbar-items"><path class="cls-1" d="M22.45,16.71a5,5,0,1,1-5-5A5,5,0,0,1,22.45,16.71Z"/><path class="cls-1" d="M28.88,14.79l-2.62-.53a9.22,9.22,0,0,0-.86-2.07L26.88,10a1.16,1.16,0,0,0-.14-1.45L25.61,7.38a1.16,1.16,0,0,0-1.45-.14L21.93,8.72a9.22,9.22,0,0,0-2.07-.86l-.53-2.62a1.14,1.14,0,0,0-1.12-.92h-1.6a1.15,1.15,0,0,0-1.13.92L15,7.86a9.22,9.22,0,0,0-2.07.86L10.66,7.24a1.16,1.16,0,0,0-1.45.14L8.08,8.51A1.14,1.14,0,0,0,7.94,10l1.48,2.23a9.22,9.22,0,0,0-.86,2.07l-2.62.53A1.14,1.14,0,0,0,5,15.91v1.6a1.15,1.15,0,0,0,.92,1.13l2.63.53a9.12,9.12,0,0,0,.85,2.06L7.94,23.46a1.14,1.14,0,0,0,.14,1.45L9.21,26a1.14,1.14,0,0,0,1.45.14l2.23-1.48a9.22,9.22,0,0,0,2.07.86l.52,2.62a1.16,1.16,0,0,0,1.13.93h1.6a1.15,1.15,0,0,0,1.12-.93l.53-2.62a9.22,9.22,0,0,0,2.07-.86l2.23,1.48A1.14,1.14,0,0,0,25.61,26l1.13-1.13a1.16,1.16,0,0,0,.14-1.45L25.4,21.23a9.22,9.22,0,0,0,.86-2.07l2.62-.52a1.15,1.15,0,0,0,.92-1.13v-1.6A1.14,1.14,0,0,0,28.88,14.79ZM22.65,22a7.41,7.41,0,0,1-10.38.1l-.21-.21a7.41,7.41,0,0,1,0-10.33.47.47,0,0,0,.1-.1A7.42,7.42,0,0,1,22.65,22Z"/><path class="cls-2" d="M22.45,16.71a5,5,0,1,1-5-5A5,5,0,0,1,22.45,16.71Z"/><path class="cls-1" d="M22.45,16.71a5,5,0,1,1-5-5A5,5,0,0,1,22.45,16.71Z"/></g></svg>