<svg xmlns="http://www.w3.org/2000/svg" viewBox="0 0 34.82 33.43"><defs><style>.cls-1{fill:#7a8593;}</style></defs><g id="Toolbar-items"><path class="cls-1" d="M12.43,13.14a.65.65,0,0,0,.46-.2l3.89-4.21V21.38a.63.63,0,1,0,1.26,0V8.73l3.89,4.21a.63.63,0,0,0,.89,0,.62.62,0,0,0,0-.88l-5-5.38h0a.61.61,0,0,0-.9,0h0l-5,5.38A.62.62,0,0,0,12,13,.63.63,0,0,0,12.43,13.14Z"/><path class="cls-1" d="M24.4,16.82a.63.63,0,0,0,0,1.26A1.59,1.59,0,0,1,26,19.66v4.42a1.59,1.59,0,0,1-1.59,1.58h-14a1.59,1.59,0,0,1-1.59-1.58V19.66a1.59,1.59,0,0,1,1.59-1.58.63.63,0,0,0,0-1.26,2.84,2.84,0,0,0-2.84,2.84v4.42a2.84,2.84,0,0,0,2.84,2.83h14a2.84,2.84,0,0,0,2.84-2.83V19.66A2.84,2.84,0,0,0,24.4,16.82Z"/></g></svg>