<svg xmlns="http://www.w3.org/2000/svg" viewBox="0 0 34.82 33.43"><defs><style>.cls-1{fill:#7a8593;}</style></defs><g id="Toolbar-items"><path class="cls-1" d="M28.64,12,26,9.13h0a1,1,0,0,0-.72-.31,1,1,0,0,0-.72.31h0L21.8,12a1,1,0,0,0,.05,1.41,1,1,0,0,0,1.42,0l.95-1v5.13a1,1,0,0,0,2,0V12.36l1,1A1,1,0,0,0,28.64,12Z"/><path class="cls-1" d="M17.55,10.14a1.22,1.22,0,0,0-1.22,1.22v5H10.57v-5a1.22,1.22,0,0,0-2.44,0V22.84a1.22,1.22,0,0,0,2.44,0V18.21h5.76v4.63a1.23,1.23,0,0,0,2.45,0V11.36A1.22,1.22,0,0,0,17.55,10.14Z"/></g></svg>