<svg xmlns="http://www.w3.org/2000/svg" viewBox="0 0 373.62 403.59"><defs><style>.cls-1{fill:#fff;}</style></defs><g id="content-2" data-name="content"><polygon class="cls-1" points="209.58 230.44 145.99 230.44 161 174.41 178.53 108.96 207.73 0 128.64 0 99.44 108.96 0 108.96 0 174.41 81.91 174.41 66.9 230.44 0 230.44 0 295.89 49.35 295.89 20.5 403.59 99.59 403.59 128.44 295.89 192.03 295.89 163.18 403.59 242.27 403.59 271.12 295.89 373.63 295.89 373.63 230.44 288.67 230.44 209.58 230.44"/><polygon class="cls-1" points="321.22 108.96 350.42 0 271.32 0 242.12 108.96 224.59 174.41 303.68 174.41 373.63 174.41 373.63 108.96 321.22 108.96"/></g></svg>